# xmcd
#
# Track frame offsets:
#	150
#	18060
#	36116
#	52755
#	71193
#	90870
#	106296
#	121521
#	138127
#	153039
#	165882
#	183445
#	195431
#	213979
#	227995
#	243009
#	253657
#	265234
#	278606
#	293645
#	317933
#	336645
#
# Disc length: 4773 seconds
# Revision: 1
# Processed by: cddbd v1.5.2PL0 Copyright (c) Steve Scherf et al.
# Submitted via: dBpowerAMP V12.0
#
DISCID=1d12a316
DTITLE=Various Artist - Boogie Presents Silver Roads
DYEAR=1974
DGENRE=Country Rock
TTITLE0=Billy Thorpe and the Aztecs - Cigarettes and Whiskey
TTITLE1=Stars - Land Of Fortune
TTITLE2=The Dingoes - Boy On The Run
TTITLE3=Cold Chisel - Khe Sanh
TTITLE4=Fraternity feat. Bon Scott - Sommerville
TTITLE5=Chain - Show Me Home
TTITLE6=Broderick Smith - She's Gone
TTITLE7=Axiom - Ford's Bridge
TTITLE8=Johnny Chester - Glory Glory (I'll Be Back To See The Storey Bridge)
TTITLE9=Laurie Allen Revue - Not Born To Follow
TTITLE10=Gary Shearston - Faded Streets, Windy Weather
TTITLE11=Margret RoadKnight - Girls In Our Town
TTITLE12=Doug Ashdown - Winter In America
TTITLE13=Ross Ryan - I Don't Want To Know About It
TTITLE14=Russell Morris - Alcohol Farm
TTITLE15=Ray Brown and Moonstone - Call Me A Drifter
TTITLE16=Flying Circus - Silvertown Girl
TTITLE17=Tymepiece - Sweet Release
TTITLE18=Autumn - Falling
TTITLE19=Max Merritt and The Meteors - Slippin' Away
TTITLE20=Little River Band - It's a Long Way There
TTITLE21=Hot Knives feat. Greg Quill - Wintersong
EXTD=
EXTT0=
EXTT1=
EXTT2=
EXTT3=
EXTT4=
EXTT5=
EXTT6=
EXTT7=
EXTT8=
EXTT9=
EXTT10=
EXTT11=
EXTT12=
EXTT13=
EXTT14=
EXTT15=
EXTT16=
EXTT17=
EXTT18=
EXTT19=
EXTT20=
EXTT21=
PLAYORDER=
